<?xml version="1.0" encoding="UTF-8"?>
<!DOCTYPE svg PUBLIC "-//W3C//DTD SVG 1.1//EN" "http://www.w3.org/Graphics/SVG/1.1/DTD/svg11.dtd">
<svg xmlns="http://www.w3.org/2000/svg" version="1.1" width="1329px" height="1390px" style="shape-rendering:geometricPrecision; text-rendering:geometricPrecision; image-rendering:optimizeQuality; fill-rule:evenodd; clip-rule:evenodd" xmlns:xlink="http://www.w3.org/1999/xlink">
<g><path style="opacity:0.995" fill="#000000" d="M 655.5,-0.5 C 679.167,-0.5 702.833,-0.5 726.5,-0.5C 897.159,11.2892 1044.49,75.4559 1168.5,192C 1238.71,261.562 1292.05,342.395 1328.5,434.5C 1328.5,436.5 1328.5,438.5 1328.5,440.5C 1326.47,440.662 1324.47,440.495 1322.5,440C 1321,438.5 1319.5,437 1318,435.5C 1298.48,409.139 1278.48,383.139 1258,357.5C 1219.37,316.841 1177.2,280.674 1131.5,249C 975.645,154.98 811.312,136.98 638.5,195C 520.52,240.38 426.02,315.213 355,419.5C 315.7,485.046 288.367,555.38 273,630.5C 266.441,665.52 259.774,700.52 253,735.5C 234.304,828.557 193.638,910.224 131,980.5C 124.875,984.956 119.042,989.789 113.5,995C 107.676,999.147 101.676,999.48 95.5,996C 74.8788,970.616 57.3788,943.116 43,913.5C 33.0212,887.254 25.6879,860.254 21,832.5C -21.6244,592.782 39.3756,384.116 204,206.5C 275.822,135.141 358.989,80.6407 453.5,43C 519.052,19.581 586.386,5.08104 655.5,-0.5 Z"/></g>
<g><path style="opacity:0.981" fill="#000000" d="M 847.5,439.5 C 851.24,438.741 852.907,440.241 852.5,444C 851.882,448.64 850.715,453.14 849,457.5C 832.283,496.935 812.95,534.935 791,571.5C 789.192,573.396 787.025,573.896 784.5,573C 779.657,569.829 774.491,567.329 769,565.5C 757.233,568.153 745.4,570.487 733.5,572.5C 729.972,572.637 727.972,570.97 727.5,567.5C 730.136,557.155 731.802,546.655 732.5,536C 731.011,528.182 728.511,520.682 725,513.5C 724.294,511.029 724.627,508.695 726,506.5C 764.649,480.923 805.149,458.59 847.5,439.5 Z"/></g>
<g><path style="opacity:0.995" fill="#000000" d="M -0.5,1246.5 C -0.5,1245.17 -0.5,1243.83 -0.5,1242.5C 2.20154,1236.8 5.70154,1231.46 10,1226.5C 26.3054,1211.86 43.4721,1198.36 61.5,1186C 95.3732,1164.23 128.373,1141.23 160.5,1117C 206.738,1075.44 247.904,1029.61 284,979.5C 307.564,937.039 329.564,893.706 350,849.5C 353.33,844.918 357.83,842.585 363.5,842.5C 406.438,852.151 447.438,846.984 486.5,827C 511.93,810.237 531.764,788.404 546,761.5C 548.07,756.313 549.07,750.979 549,745.5C 548.484,742.966 547.317,740.8 545.5,739C 541.739,738.262 538.072,738.595 534.5,740C 521.119,749.026 507.119,757.026 492.5,764C 462.748,771.062 435.414,765.729 410.5,748C 363.44,712.599 351.94,667.766 376,613.5C 388.879,593.621 405.379,577.454 425.5,565C 429.95,562.739 434.617,561.072 439.5,560C 456.167,559.333 472.833,559.333 489.5,560C 544.622,566.469 599.955,569.469 655.5,569C 661.473,569.907 667.473,570.573 673.5,571C 675.286,571.785 676.786,572.951 678,574.5C 679.04,582.131 679.706,589.798 680,597.5C 679.945,606.433 684.112,612.266 692.5,615C 701.436,616.752 710.436,618.085 719.5,619C 722.25,620.085 723.917,622.085 724.5,625C 720.547,639.238 718.047,653.738 717,668.5C 713.389,726.436 710.722,784.436 709,842.5C 707.662,858.852 703.662,874.518 697,889.5C 682.721,919.081 664.721,946.081 643,970.5C 475.187,1144.79 269.687,1239.46 26.5,1254.5C 18.2834,1254.96 10.2834,1253.96 2.5,1251.5C 1.30374,1249.86 0.303736,1248.19 -0.5,1246.5 Z"/></g>
<g><path style="opacity:0.996" fill="#000000" d="M 692.5,1389.5 C 688.833,1389.5 685.167,1389.5 681.5,1389.5C 578.259,1385.7 480.259,1360.87 387.5,1315C 383.723,1312.79 380.39,1310.13 377.5,1307C 379.514,1304.65 381.847,1302.65 384.5,1301C 423.167,1280.67 461.833,1260.33 500.5,1240C 576.181,1196.64 645.181,1144.31 707.5,1083C 725.541,1067.29 743.874,1051.96 762.5,1037C 826.711,1000.13 887.711,1004.8 945.5,1051C 976.566,1080.96 995.066,1117.46 1001,1160.5C 1001.67,1167.5 1001.67,1174.5 1001,1181.5C 991.648,1228.22 976.314,1272.89 955,1315.5C 948.215,1327.29 939.048,1336.79 927.5,1344C 908.114,1353.91 887.781,1361.24 866.5,1366C 822.657,1376.14 778.324,1383.14 733.5,1387C 719.675,1387.82 706.008,1388.66 692.5,1389.5 Z"/></g>
</svg>
